<?xml version="1.0" encoding="utf-8"?>
<!-- Generator: Adobe Illustrator 17.1.0, SVG Export Plug-In . SVG Version: 6.00 Build 0)  -->
<!DOCTYPE svg PUBLIC "-//W3C//DTD SVG 1.1//EN" "http://www.w3.org/Graphics/SVG/1.1/DTD/svg11.dtd">
<svg version="1.1" id="Camada_1" xmlns="http://www.w3.org/2000/svg" xmlns:xlink="http://www.w3.org/1999/xlink" x="0px" y="0px"
	 viewBox="0 0 195.6 51" enable-background="new 0 0 195.6 51" xml:space="preserve">
<g id="Camada_1_2_">
	<g id="ORIGINAL_17_">
		<g>
			<g>
				<g>
					<path fill="#474747" d="M75.5,41.7c-1.4,0.5-3.8,1.4-7.6,1.4c-7.6,0-13.8-5.2-13.8-14.3c0-8.6,5.7-14.7,14.7-14.7
						c3.3,0,5.7,0.5,6.7,1l-1,2.9c-1.4-0.5-3.3-1-5.7-1c-6.7,0-10.9,4.3-10.9,11.4c0,6.7,3.8,11.4,10.9,11.4c2.4,0,4.3-0.5,5.7-1
						L75.5,41.7z"/>
					<path fill="#474747" d="M80.2,13.1H84v29.5h-3.8V13.1z"/>
					<path fill="#474747" d="M89.7,42.6v-20h3.8v20C93.5,42.6,89.7,42.6,89.7,42.6z"/>
					<path fill="#474747" d="M114,42.1c-1.4,0.5-3.3,1-6.2,1c-6.2,0-10-4.3-10-10.5s4.3-10.5,10.9-10.5c1.9,0,4.3,0.5,5.2,1l-1,2.9
						c-1-0.5-2.4-1-4.3-1c-4.8,0-7.1,3.3-7.1,7.6c0,4.8,2.9,7.6,7.1,7.6c1.9,0,3.3-0.5,4.3-1L114,42.1z"/>
					<path fill="#474747" d="M121.6,31.7L121.6,31.7c0.5-0.5,1.4-1.4,1.9-2.4l5.7-7.1h4.3l-7.6,8.1l8.6,11.9h-4.3l-7.1-9.5l-1.9,1.9
						v7.6h-3.8V12.7h3.8L121.6,31.7L121.6,31.7z"/>
					<path fill="#474747" d="M137.8,15.1c1.4-0.5,3.8-0.5,6.2-0.5c3.8,0,5.7,0.5,7.6,1.9c1.4,1,2.4,2.9,2.4,4.8
						c0,2.9-1.9,5.2-4.8,6.2l0,0c2.9,0.5,5.7,2.9,5.7,7.1c0,2.4-1,4.3-2.4,5.7c-1.9,1.9-5.2,2.4-9.5,2.4c-2.4,0-4.3,0-5.7-0.5V15.1
						H137.8z M141.1,26.5h3.3c3.8,0,6.2-1.9,6.2-4.8c0-3.3-2.4-4.8-6.2-4.8c-1.9,0-2.4,0-3.3,0.5L141.1,26.5L141.1,26.5z
						 M141.1,39.8c1,0,1.9,0,2.9,0c3.8,0,7.1-1.4,7.1-5.2c0-3.8-3.3-5.2-7.1-5.2h-2.9V39.8L141.1,39.8z"/>
					<path fill="#474747" d="M173.9,42.6v-3.3l0,0c-1.4,1.4-3.3,3.8-7.1,3.8c-3.8,0-7.1-2.4-7.1-8.6V22.7h3.8v10.9
						c0,3.8,1.4,6.2,4.3,6.2c2.9,0,4.3-1.9,4.8-3.3c0-0.5,0.5-1.4,0.5-1.9V22.2h3.8v14.7c0,1.9,0,3.8,0,5.2L173.9,42.6L173.9,42.6z"
						/>
					<path fill="#474747" d="M182.4,38.8c1,0.5,2.9,1.4,4.8,1.4c2.9,0,3.8-1.4,3.8-2.9c0-1.9-1-2.9-3.8-3.8
						c-3.8-1.4-5.2-3.3-5.2-5.7c0-3.3,2.4-5.7,7.1-5.7c1.9,0,3.8,0.5,4.8,1l-1,2.9c-1-0.5-2.4-1-4.3-1s-3.3,1.4-3.3,2.9
						c0,1.9,1,2.4,3.8,3.3c3.3,1.4,5.2,2.9,5.2,6.2c0,3.3-2.9,6.2-7.6,6.2c-2.4,0-4.3-0.5-5.7-1.4L182.4,38.8z"/>
				</g>
				<circle fill="#474747" cx="91.6" cy="17" r="2.9"/>
			</g>
		</g>
	</g>
	<g id="Camada_3">
	</g>
	<g id="Camada_4" display="none">
		<g id="Camada_1_1_" display="inline">
			<g id="ORIGINAL_1_">
				<path id="LOGO_1_" fill="#474747" d="M44.1,8.4c-0.5-0.5-2.9-1-4.3-1.4c0-1.4-0.5-1.9-0.5-2.4c-1-2.9-1.4-3.3-4.3-3.8
					c-2.9-0.5-7.1-1-10.9-0.5c-4.3,0-8.1,0-10.9,0.5s-3.3,1-4.3,3.8c0,0.5-0.5,1-0.5,2.4C7,7.4,4.6,7.9,4.2,8.4
					c-1,0.5-4.3,6.7-3.3,8.6c0.5,1.4,1.9,2.4,2.9,1.4c1-1,1.9-8.1,1.9-8.1c0.5,0,1,0,1.9,0C6.1,16.5,5.1,27.9,7,40.7
					c0,1.4,1,2.4,2.9,2.9v0.5v2.9c0,1.9,1.4,3.3,3.3,3.3c1.9,0,3.3-1.4,3.3-3.3v-2.4c2.4,0,5.2,0,8.6,0c2.9,0,6.2,0,8.1,0v2.4
					c0,1.9,1.4,3.3,3.3,3.3s3.3-1.4,3.3-3.3v-2.9c0,0,0,0,0-0.5c1.9-0.5,2.9-1.4,2.9-2.9c1.9-12.8,1-23.8-0.5-30.4c0.5,0,1,0,1.4,0
					c0,0,1,7.6,1.9,8.1c1,0.5,2.4,0,3.3-1.9C48.4,15.1,45.1,8.9,44.1,8.4z M19.4,2.7h9.5c1,0,1,0.5,1,1.4c0,0.5,0,1.4-1,1.4h-9.5
					c-1,0-1-0.5-1-1.4C18.4,3.2,18.4,2.7,19.4,2.7z M17,40.2c-0.5,0.5-5.2-0.5-6.2-0.5c-1.4-0.5-1.4,0-1.9-1c-0.5-1-0.5-3.8,0-3.8
					s0,0,1.4,0C13.7,36,17.5,38.3,17,40.2z M39.3,38.3c-0.5,1-0.5,1-1.9,1c-1.4,0.5-5.7,1-6.2,0.5c-0.5-1.9,3.3-4.3,6.7-5.2
					c1.4-0.5,1-0.5,1.4,0C39.3,34.5,39.8,37.4,39.3,38.3z M39.8,26c-0.5,1.9-1.4,2.9-3.3,3.3c-1.9,0-23.3,0-25.7,0
					C8.4,28.8,8,27.9,7.5,26c-0.5-1.9,1-12.8,1.9-14.7s1-2.9,3.3-3.3c2.4-0.5,20.4-0.5,21.9,0c1.9,0.5,2.9,1.4,3.3,3.3
					C38.9,13.1,40.8,24.1,39.8,26z"/>
			</g>
		</g>
	</g>
	<path id="LOGO_27_" fill="#474747" d="M45.3,8.6c-0.6-0.5-2.7-1.1-4.1-1.5c-0.3-1.2-0.6-2-0.8-2.4c-1.2-2.9-1.5-3.3-4.5-3.8
		c-2.7-0.5-6.8-0.6-11-0.5c-4.1-0.1-8.2,0-11,0.5c-3,0.6-3.3,0.9-4.5,3.8C9.3,5.1,9,5.9,8.7,7C7.4,7.4,5.1,8.1,4.4,8.6
		C3.6,9.3,0,15.4,1.1,17c1,1.7,2.2,2.4,3.3,1.7c1-0.8,2-8.3,2-8.3c0.6,0,1.2,0,1.6,0.1C6.6,16.9,5.3,27.9,7.4,41
		c0.2,1.4,1.1,2.3,2.7,2.9c0,0.1,0,0.3,0,0.4v3c0,1.7,1.4,3.2,3.2,3.2c1.8,0,3.2-1.4,3.2-3.2v-2.5c2.2,0,5.3,0,8.6,0
		c3.1,0,6.1,0,8.2,0v2.5c0,1.7,1.4,3.2,3.2,3.2c1.8,0,3.2-1.4,3.2-3.2v-3c0-0.1,0-0.2,0-0.3c1.7-0.6,2.8-1.6,3-3
		c2.1-13.1,0.8-24.1-0.6-30.6c0.4,0,0.9,0,1.5,0c0,0,1,7.5,2,8.3c1,0.7,2.2,0,3.3-1.7C49.7,15.4,46.1,9.3,45.3,8.6z M20.4,2.6H30
		c1.1,0,1,0.6,1,1.3c0,0.7,0.1,1.3-1,1.3h-9.6c-1.1,0-1-0.6-1-1.3C19.4,3.2,19.3,2.6,20.4,2.6z M17.8,40.5c-0.7,0.6-5.1-0.3-6.5-0.6
		c-1.4-0.3-1.2-0.1-1.7-1.1c-0.5-1-0.3-3.8,0-3.9c0.3-0.1,0.2-0.2,1.5,0.2C14.5,36.3,18.4,38.8,17.8,40.5z M40.4,38.9
		c-0.5,1-0.4,0.8-1.7,1.1c-1.4,0.3-5.8,1.2-6.5,0.6c-0.7-1.7,3.2-4.3,6.7-5.4c1.3-0.4,1.2-0.4,1.5-0.2
		C40.7,35.1,40.8,37.9,40.4,38.9z M41.1,26.5c-0.6,1.9-1.6,3.1-3.3,3.3c-1.8,0.2-23.3,0.2-25.7-0.1c-2.3-0.3-2.7-1.4-3.3-3.3
		c-0.6-1.9,1-13,1.7-15.1c0.6-2,0.9-2.7,3.3-3.3c2.5-0.6,20.5-0.4,22.3,0.1c1.8,0.5,2.7,1.3,3.3,3.3C40,13.5,41.7,24.6,41.1,26.5z"
		/>
</g>
</svg>
